<svg width="20" height="20" viewBox="0 0 20 20" fill="none" xmlns="http://www.w3.org/2000/svg">
<circle cx="10" cy="10" r="9.25" stroke="#E4002B" stroke-width="1.5"/>
<path d="M11.7878 5.66953H11.7281L11.6998 5.72207L7.40552 13.6865L7.32601 13.834H7.49354H8.43489H8.49458L8.52291 13.7814L12.8171 5.81699L12.8966 5.66953H12.7291H11.7878ZM6.93967 7.08417L6.93967 7.08417L6.93986 7.08338C6.9607 6.99703 6.996 6.94243 7.0392 6.90857C7.08245 6.87467 7.14433 6.85318 7.234 6.85318C7.32367 6.85318 7.38555 6.87467 7.4288 6.90857C7.472 6.94243 7.5073 6.99703 7.52814 7.08338L7.52813 7.08338L7.52833 7.08417C7.57468 7.26955 7.59938 7.54886 7.59938 7.92722C7.59938 8.34814 7.57467 8.65599 7.52805 8.85603C7.5072 8.94218 7.47194 8.99668 7.4288 9.03049C7.38555 9.06439 7.32367 9.08588 7.234 9.08588C7.14433 9.08588 7.08245 9.06439 7.0392 9.03049C6.99606 8.99668 6.9608 8.94218 6.93995 8.85604C6.89333 8.656 6.86861 8.34814 6.86861 7.92722C6.86861 7.54886 6.89332 7.26955 6.93967 7.08417ZM5.86041 9.54808L5.86038 9.5481L5.86201 9.55041C5.99353 9.73608 6.17122 9.87446 6.39192 9.96578L6.39189 9.96586L6.39573 9.96727C6.46104 9.99121 6.56922 10.0091 6.68915 10.0236C6.81261 10.0384 6.95941 10.0507 7.10869 10.0604C7.4071 10.0799 7.72012 10.0897 7.88489 10.0897C7.9269 10.0897 7.95936 10.0891 7.98381 10.0877C8.00433 10.0866 8.03077 10.0846 8.05278 10.0769L8.05294 10.0768C8.06064 10.0741 8.09623 10.0617 8.11555 10.0229C8.13032 9.99326 8.12807 9.96618 8.12162 9.94597C8.32089 9.85489 8.4802 9.72282 8.59623 9.54926C8.72621 9.3653 8.8116 9.13912 8.85572 8.87443C8.89916 8.61377 8.92054 8.31189 8.92054 7.96953C8.92054 7.62717 8.89916 7.32529 8.85572 7.06463C8.8116 6.79995 8.72621 6.57376 8.59622 6.3898C8.47127 6.2029 8.296 6.06752 8.0747 5.98329C7.85382 5.8922 7.57191 5.84934 7.234 5.84934C6.90229 5.84934 6.62092 5.89242 6.39385 5.98308C6.17223 6.06731 5.99385 6.20253 5.86201 6.38865L5.86198 6.38863L5.86041 6.39098C5.73795 6.57467 5.65632 6.80041 5.61228 7.06463C5.56884 7.32529 5.54746 7.62717 5.54746 7.96953C5.54746 8.31189 5.56884 8.61377 5.61228 8.87443C5.65632 9.13866 5.73795 9.36439 5.86041 9.54808ZM11.3987 12.4812L11.3988 12.4816C11.4429 12.7391 11.5246 12.961 11.6468 13.1442L11.6467 13.1443L11.6496 13.1482C11.7822 13.3276 11.9613 13.4554 12.183 13.532C12.4091 13.6148 12.6895 13.6541 13.0204 13.6541C13.3576 13.6541 13.6384 13.615 13.8583 13.5318C14.08 13.4551 14.2562 13.3269 14.382 13.1463C14.512 12.9626 14.5977 12.74 14.642 12.4816L14.6421 12.4812C14.6856 12.2204 14.7069 11.915 14.7069 11.5657C14.7069 11.2233 14.6856 10.9214 14.6421 10.6608C14.598 10.3961 14.5126 10.1699 14.3826 9.98597C14.2577 9.79907 14.0824 9.66368 13.8611 9.57945C13.6402 9.48835 13.3583 9.44549 13.0204 9.44549C12.6887 9.44549 12.4073 9.48857 12.1802 9.57923C11.9586 9.66346 11.7802 9.79868 11.6484 9.98481L11.6484 9.98478L11.6468 9.98714C11.5243 10.1708 11.4427 10.3966 11.3987 10.6608C11.3552 10.9214 11.3339 11.2233 11.3339 11.5657C11.3339 11.915 11.3552 12.2204 11.3987 12.4812ZM12.7261 10.6803L12.7263 10.6795C12.7471 10.5932 12.7824 10.5386 12.8256 10.5047C12.8688 10.4708 12.9307 10.4493 13.0204 10.4493C13.1101 10.4493 13.1719 10.4708 13.2152 10.5047C13.2584 10.5386 13.2937 10.5932 13.3145 10.6795L13.3147 10.6803C13.3611 10.8657 13.3858 11.145 13.3858 11.5234C13.3858 11.9443 13.3611 12.2522 13.3144 12.4522C13.2936 12.5383 13.2583 12.5928 13.2152 12.6266C13.1719 12.6605 13.1101 12.682 13.0204 12.682C12.9307 12.682 12.8688 12.6605 12.8256 12.6266C12.7825 12.5928 12.7472 12.5383 12.7263 12.4522C12.6797 12.2522 12.655 11.9443 12.655 11.5234C12.655 11.145 12.6797 10.8657 12.7261 10.6803Z" fill="#E4002B" stroke="#E4002B" stroke-width="0.2"/>
</svg>
