<svg xmlns="http://www.w3.org/2000/svg" height="512px" viewBox="0 0 192 192" width="512px"><style type="text/css">.st0{opacity:0;fill:#FFFFFF;} .st1{fill:url(#SVGID_1_);} .st2{fill:url(#SVGID_2_);} .st3{fill:url(#SVGID_3_);} .st4{fill:url(#SVGID_4_);} .st5{opacity:0.2;} .st6{opacity:0.12;} .st7{opacity:0.25;fill:#FFFFFF;}</style><path class="st0" d="M0 0h192v192H0z"/><linearGradient gradientUnits="userSpaceOnUse" id="SVGID_1_" x1="100.929" x2="-13.907" y1="18.738" y2="133.575"><stop offset="0" stop-color="#00A0FF"/><stop offset=".007" stop-color="#00A1FF"/><stop offset=".26" stop-color="#00BEFF"/><stop offset=".512" stop-color="#00D2FF"/><stop offset=".76" stop-color="#00DFFF"/><stop offset="1" stop-color="#00E3FF"/></linearGradient><path class="st1" d="M23.17 10.72C21.18 12.83 20 16.09 20 20.33v151.33c0 4.24 1.18 7.51 3.17 9.61l.51.49L108.45 97v-2L23.67 10.22l-.5.5z"/><linearGradient gradientUnits="userSpaceOnUse" id="SVGID_2_" x1="183.278" x2="17.706" y1="96.002" y2="96.002"><stop offset="0" stop-color="#FFE000"/><stop offset=".409" stop-color="#FFBD00"/><stop offset=".775" stop-color="#FFA500"/><stop offset="1" stop-color="#FF9C00"/></linearGradient><path class="st2" d="M136.7 125.27L108.45 97v-2l28.26-28.26.64.36 33.48 19.02c9.56 5.43 9.56 14.32 0 19.76l-33.48 19.02-.65.37z"/><linearGradient gradientUnits="userSpaceOnUse" id="SVGID_3_" x1="121.643" x2="-34.085" y1="111.705" y2="267.433"><stop offset="0" stop-color="#FF3A44"/><stop offset="1" stop-color="#C31162"/></linearGradient><path class="st3" d="M137.35 124.9L108.45 96l-85.28 85.28c3.15 3.34 8.36 3.75 14.22.42l99.96-56.8"/><linearGradient gradientUnits="userSpaceOnUse" id="SVGID_4_" x1="1.694" x2="71.232" y1="-39.654" y2="29.884"><stop offset="0" stop-color="#32A071"/><stop offset=".069" stop-color="#2DA771"/><stop offset=".476" stop-color="#15CF74"/><stop offset=".801" stop-color="#06E775"/><stop offset="1" stop-color="#00F076"/></linearGradient><path class="st4" d="M137.35 67.1L37.39 10.3c-5.86-3.33-11.07-2.92-14.22.42L108.45 96l28.9-28.9z"/><path class="st5" d="M136.71 124.27L37.39 180.7c-5.56 3.16-10.52 2.95-13.71.07l-.51.51.51.49c3.19 2.87 8.15 3.09 13.71-.07l99.96-56.8-.64-.63z"/><path class="st6" d="M23.17 180.28c-1.99-2.11-3.17-5.38-3.17-9.61v1c0 4.24 1.18 7.51 3.17 9.61l.51-.51-.51-.49zM170.83 104.88l-34.12 19.39.64.64 33.48-19.02c4.78-2.72 7.17-6.3 7.17-9.88-.4 3.23-2.84 6.41-7.17 8.87z"/><path class="st7" d="M37.39 11.3l133.44 75.82c4.34 2.46 6.77 5.64 7.17 8.88 0-3.58-2.39-7.16-7.17-9.88L37.39 10.3C27.82 4.87 20 9.38 20 20.34v1c0-10.96 7.82-15.47 17.39-10.04z"/></svg>